# xmcd
#
# Track frame offsets:
# 150
# 9807
# 25255
# 46397
# 58582
# 72237
# 90712
# 105022
# 121277
# 134522
# 149915
# 162800
#
# Disc length: 2415 seconds
#
#
# Revision: 0
# Processed by: cddbd v1.5.2PL0 Copyright (c) Steve Scherf et al.
# Submitted via: FreeRIP 2.951 
#
DISCID=9c096d0c
DTITLE=Terry Bush - Maybe Tomorrow
DYEAR=2000
DGENRE=Easy Listening
TTITLE0=Maybe Tomorrow
TTITLE1=I Asked Her Why
TTITLE2=I Know a Place
TTITLE3=Strange
TTITLE4=Old Cowboys
TTITLE5=My Dreams
TTITLE6=Dreams and Miracles
TTITLE7=Dolly Parton
TTITLE8=Why Me
TTITLE9=Down Here
TTITLE10=One Last Time
TTITLE11=Youthful Feeling
EXTD=The theme from the TV series The Littlest Hobo, as sung by the original artist
EXTT0=
EXTT1=
EXTT2=
EXTT3=
EXTT4=
EXTT5=
EXTT6=
EXTT7=
EXTT8=
EXTT9=
EXTT10=
EXTT11=
PLAYORDER=
